#!OML:ASF E:\Steps\Project 1\Capture day 1\Session 2\Subject.ASF
:FULLY-SPECIFIED
:DEGREES
566
root 21.4863 15.7569 -7.89006 -162.283 -0.524218 181.308
lowerback -28.1884 -0.0330063 -5.57427
upperback 1.8132 1.7504 -0.624979
thorax 17.0275 0.196871 3.059
lowerneck -6.86684 0.699604 15.2279
upperneck 32.3065 0.0565404 -20.8638
head 11.4952 -1.98473 -11.3431
rclavicle -1.12313e-014 -4.77083e-015
rhumerus -26.9277 -10.6113 -82.0287
rradius 39.0409
rwrist -7.4748
rhand -6.35916 -58.801
rfingers 7.12502
rthumb 19.4871 -447.844
lclavicle -1.12313e-014 -4.77083e-015
lhumerus -35.7426 17.1296 68.0073
lradius 13.8877
lwrist -16.441
lhand -21.4506 -9.85028
lfingers 7.12502
lthumb 4.93926 20.0722
rfemur -14.6736 4.51433 27.5129
rtibia 17.0902
rfoot -24.325 -1.283
rtoes -31.7026
lfemur -46.481 3.71182 -24.5439
ltibia 18.4133
lfoot -5.32678 22.4237
ltoes 4.71499
567
root 21.4855 15.7381 -7.99014 -162.156 -0.79135 181.563
lowerback -28.2758 0.0205067 -5.43747
upperback 1.78693 1.76825 -0.565554
thorax 17.0406 0.213445 3.05784
lowerneck -7.58291 0.480019 14.5094
upperneck 33.0601 -0.355167 -20.54
head 11.8658 -2.26641 -11.2322
rclavicle -1.78906e-015 -2.38542e-015
rhumerus -26.9133 -10.1953 -82.2642
rradius 39.3453
rwrist -7.80059
rhand -7.31238 -57.3401
rfingers 7.12502
rthumb 18.5704 -446.474
lclavicle -1.78906e-015 -2.38542e-015
lhumerus -35.8793 16.9469 68.0993
lradius 14.0869
lwrist -16.1166
lhand -21.5067 -10.0156
lfingers 7.12502
lthumb 4.88508 19.9081
rfemur -14.513 4.6207 27.8692
rtibia 17.2913
rfoot -24.5294 -1.30099
rtoes -29.2766
lfemur -46.3787 3.34249 -24.1511
ltibia 17.5751
lfoot -5.2453 23.6068
ltoes 3.35559
568
root 21.4824 15.7152 -8.10238 -162.07 -1.04588 181.776
lowerback -28.54 0.106375 -5.27961
upperback 1.84074 1.84866 -0.560467
thorax 17.2356 0.254652 3.01482
lowerneck -7.38153 0.467864 14.9102
upperneck 32.6228 -0.285046 -20.8025
head 11.6506 -2.18265 -11.3424
rclavicle 3.27995e-015 1.66979e-014
rhumerus -26.8015 -10.0636 -82.4917
rradius 39.2823
rwrist -7.94031
rhand -4.59786 -59.6811
rfingers 7.12502
rthumb 21.1797 -448.544
lclavicle 3.27995e-015 1.66979e-014
lhumerus -35.8747 16.7641 68.2005
lradius 14.17
lwrist -15.7924
lhand -21.7047 -10.2552
lfingers 7.12502
lthumb 4.69394 19.6728
rfemur -14.2262 4.68691 28.1802
rtibia 17.4858
rfoot -24.6404 -1.46261
rtoes -29.3474
lfemur -46.206 3.13303 -23.9085
ltibia 16.8953
lfoot -4.58459 24.4733
ltoes 1.84648
569
root 21.481 15.6925 -8.21019 -161.959 -1.3351 181.789
lowerback -28.768 0.136907 -5.325
upperback 1.82362 1.92694 -0.652408
thorax 17.3213 0.282569 2.97126
lowerneck -7.84946 0.629628 14.9565
upperneck 33.0037 -0.118658 -20.6917
head 11.9549 -2.09532 -11.3802
rclavicle -1.05356e-014 3.18055e-014
rhumerus -26.791 -9.69108 -82.8163
rradius 39.1361
rwrist -8.08371
rhand -5.43019 -58.1521
rfingers 7.12502
rthumb 20.38 -447.103
lclavicle -1.05356e-014 3.18055e-014
lhumerus -35.9393 16.1026 68.4054
lradius 14.4356
lwrist -15.0421
lhand -21.7666 -10.1977
lfingers 7.12502
lthumb 4.6341 19.7316
rfemur -13.9579 4.72785 28.2629
rtibia 17.6754
rfoot -24.6327 -1.46436
rtoes -27.0574
lfemur -46.0799 2.93477 -23.9468
ltibia 16.4256
lfoot -3.78211 24.8763
ltoes 1.78498
570
root 21.4852 15.6771 -8.30634 -161.915 -1.53668 181.768
lowerback -28.7298 0.152631 -5.55522
upperback 1.77804 2.02804 -0.71373
thorax 17.2306 0.310022 3.0677
lowerneck -7.85176 0.441542 14.8108
upperneck 33.1234 -0.427682 -20.4277
head 11.932 -2.21997 -11.2638
rclavicle -5.66536e-015 -9.54166e-015
rhumerus -26.8829 -9.38881 -83.0893
rradius 39.2366
rwrist -8.23221
rhand -6.24985 -57.0354
rfingers 7.12502
rthumb 19.5922 -446.068
lclavicle -5.66536e-015 -9.54166e-015
lhumerus -36.0508 15.4184 68.6209
lradius 14.7869
lwrist -14.3818
lhand -21.7694 -10.4138
lfingers 7.12502
lthumb 4.6314 19.5156
rfemur -13.7786 4.94644 28.3106
rtibia 18.0403
rfoot -25.3454 -2.11892
rtoes -28.5946
lfemur -45.9414 2.79465 -23.9285
ltibia 16.2036
lfoot -3.07999 24.991
ltoes 2.24171
571
root 21.489 15.6639 -8.40442 -161.951 -1.69367 181.847
lowerback -28.5242 0.249499 -5.6747
upperback 1.73609 2.18971 -0.766102
thorax 17.0608 0.378843 3.1358
lowerneck -8.51785 0.605022 14.9793
upperneck 33.4449 -0.24003 -20.467
head 12.2605 -2.11891 -11.3949
rclavicle -3.50855e-014 5.56597e-014
rhumerus -26.9129 -9.67542 -83.2655
rradius 39.2515
rwrist -8.13182
rhand -3.53333 -59.5367
rfingers 7.12502
rthumb 22.202 -448.282
lclavicle -3.50855e-014 5.56597e-014
lhumerus -36.0964 15.1925 68.6234
lradius 14.9477
lwrist -14.3645
lhand -21.6545 -10.6242
lfingers 7.12502
lthumb 4.74242 19.3027
rfemur -13.6063 5.10998 28.5029
rtibia 18.5272
rfoot -25.9524 -2.52884
rtoes -30.2703
lfemur -45.7241 2.59879 -23.6164
ltibia 16.1198
lfoot -2.40847 25.0762
ltoes 3.13534
572
root 21.4884 15.6465 -8.50945 -161.88 -1.91424 182.018
lowerback -28.5095 0.373595 -5.59182
upperback 1.69064 2.3283 -0.823374
thorax 16.9922 0.451024 3.08108
lowerneck -7.84655 0.396017 15.2657
upperneck 32.9861 -0.470127 -20.5517
head 11.857 -2.16837 -11.3851
rclavicle -2.65378e-014 4.05521e-014
rhumerus -26.7693 -9.74136 -83.5253
rradius 39.0549
rwrist -8.37162
rhand -6.69621 -55.864
rfingers 7.12502
rthumb 19.163 -444.94
lclavicle -2.65378e-014 4.05521e-014
lhumerus -36.1582 14.8144 68.7584
lradius 15.2572
lwrist -14.0052
lhand -21.5133 -10.2562
lfingers 7.12502
lthumb 4.87874 19.6677
rfemur -13.3854 5.09511 28.7786
rtibia 18.7252
rfoot -26.4948 -2.79336
rtoes -32.9374
lfemur -45.5607 2.20713 -23.0602
ltibia 16.0457
lfoot -1.61149 24.9877
ltoes 3.92932
573
root 21.4911 15.6291 -8.6185 -161.808 -1.9777 181.971
lowerback -28.6928 0.440814 -5.80348
upperback 1.6733 2.51065 -0.92322
thorax 17.0388 0.5101 3.16109
lowerneck -8.25123 0.365589 15.1988
upperneck 33.4295 -0.551195 -20.6887
head 12.1088 -2.25026 -11.5352
rclavicle -1.16289e-014 3.02153e-014
rhumerus -26.7195 -9.41753 -83.8939
rradius 39.0797
rwrist -8.89233
rhand -7.48969 -55.5944
rfingers 7.12502
rthumb 18.3998 -444.744
lclavicle -1.16289e-014 3.02153e-014
lhumerus -36.2765 14.3249 68.9316
lradius 15.5741
lwrist -13.3988
lhand -21.4884 -9.94082
lfingers 7.12502
lthumb 4.90276 19.9825
rfemur -13.0588 5.28868 28.7539
rtibia 18.7394
rfoot -25.7958 -1.98424
rtoes -26.6886
lfemur -45.3233 1.77415 -22.666
ltibia 16.1244
lfoot -0.457739 24.5306
ltoes 2.69484
574
root 21.493 15.6136 -8.72996 -161.76 -1.88765 181.753
lowerback -28.889 0.512253 -6.18318
upperback 1.68493 2.77087 -1.09091
thorax 17.1127 0.588248 3.28961
lowerneck -8.49344 0.0233714 14.7244
upperneck 33.8158 -1.10396 -20.3717
head 12.1946 -2.53752 -11.3999
rclavicle 1.03368e-014 -4.53229e-014
rhumerus -26.7627 -9.11007 -84.2821
rradius 39.345
rwrist -9.10632
rhand -6.45115 -57.0373
rfingers 7.12502
rthumb 19.3986 -446.09
lclavicle 1.03368e-014 -4.53229e-014
lhumerus -36.302 14.0893 68.9471
lradius 15.6804
lwrist -13.1612
lhand -21.8374 -10.3951
lfingers 7.12502
lthumb 4.56578 19.5357
rfemur -12.7531 5.58474 28.5242
rtibia 18.9192
rfoot -26.0921 -2.07863
rtoes -26.2253
lfemur -44.9933 1.32046 -22.434
ltibia 16.3645
lfoot 0.960456 23.8251
ltoes 2.6379
575
root 21.4881 15.5984 -8.84252 -161.6 -1.8564 181.667
lowerback -29.0966 0.607741 -6.32102
upperback 1.70573 2.98164 -1.24366
thorax 17.2198 0.665092 3.28448
lowerneck -8.38644 0.00809555 14.9648
upperneck 33.6227 -1.09214 -20.4757
head 12.0867 -2.49662 -11.4528
rclavicle 4.6118e-014 -2.78299e-014
rhumerus -26.6286 -8.99659 -84.6635
rradius 39.1941
rwrist -8.8118
rhand -6.09223 -56.7296
rfingers 7.12502
rthumb 19.7437 -445.747
lclavicle 4.6118e-014 -2.78299e-014
lhumerus -36.2499 13.4422 69.2655
lradius 16.0629
lwrist -12.4111
lhand -22.2718 -10.8874
lfingers 7.12502
lthumb 4.14629 19.0519
rfemur -12.5592 5.6481 28.4342
rtibia 19.162
rfoot -26.4532 -2.25469
rtoes -27.6928
lfemur -44.7402 0.742945 -22.026
ltibia 16.6031
lfoot 2.73716 22.8023
ltoes 4.60729
576
root 21.4828 15.5849 -8.95725 -161.431 -1.80848 181.629
lowerback -29.2436 0.72139 -6.39716
upperback 1.64407 3.18014 -1.40926
thorax 17.2024 0.746952 3.22228
lowerneck -8.70695 0.195297 15.1192
upperneck 33.8308 -0.879369 -20.3843
head 12.3016 -2.36485 -11.4854
rclavicle -3.57812e-015 3.10104e-014
rhumerus -26.6211 -9.14978 -85.0689
rradius 39.1759
rwrist -8.60658
rhand -5.87183 -57.2073
rfingers 7.12502
rthumb 19.9556 -446.203
lclavicle -3.57812e-015 3.10104e-014
lhumerus -36.3392 12.755 69.5093
lradius 16.5463
lwrist -11.6582
lhand -22.2774 -10.6502
lfingers 7.12502
lthumb 4.14086 19.2893
rfemur -12.3546 5.62981 28.3915
rtibia 19.3944
rfoot -26.6856 -2.02924
rtoes -26.9374
lfemur -44.4742 0.107525 -21.503
ltibia 16.8698
lfoot 4.48871 21.4363
ltoes 6.40758
577
root 21.4796 15.5754 -9.06564 -161.311 -1.6368 181.483
lowerback -29.2438 0.838357 -6.63046
upperback 1.50907 3.41549 -1.58423
thorax 17.011 0.83795 3.24271
lowerneck -8.80146 0.268838 15.2046
upperneck 33.9411 -0.804612 -20.3039
head 12.3903 -2.30649 -11.4855
rclavicle -6.95746e-015 -1.66979e-014
rhumerus -26.8277 -9.03435 -85.4138
rradius 39.2824
rwrist -8.41288
rhand -4.92029 -57.9945
rfingers 7.12502
rthumb 20.87 -446.892
lclavicle -6.95746e-015 -1.66979e-014
lhumerus -36.5077 12.6792 69.4181
lradius 16.7668
lwrist -11.6391
lhand -22.2105 -10.3706
lfingers 7.12502
lthumb 4.20552 19.5676
rfemur -12.1021 5.74734 28.221
rtibia 19.5827
rfoot -26.7301 -2.18716
rtoes -28.2774
lfemur -44.1614 -0.720676 -20.9096
ltibia 17.2002
lfoot 3.20714 20.2401
ltoes -0.269113
578
root 21.4789 15.5672 -9.17201 -161.199 -1.37642 181.294
lowerback -29.2916 0.928763 -6.98618
upperback 1.43698 3.66412 -1.71777
thorax 16.9062 0.918859 3.38338
lowerneck -9.05562 0.237832 14.9464
upperneck 34.3056 -0.903839 -20.1229
head 12.5848 -2.37418 -11.4341
rclavicle -3.77691e-015 3.18055e-015
rhumerus -26.9085 -8.46102 -85.7428
rradius 39.3773
rwrist -8.71829
rhand -4.51426 -57.8395
rfingers 7.12502
rthumb 21.2601 -446.693
lclavicle -3.77691e-015 3.18055e-015
lhumerus -36.6547 12.6619 69.4301
lradius 16.9729
lwrist -11.5824
lhand -22.4161 -10.7888
lfingers 7.12502
lthumb 4.00699 19.1533
rfemur -11.9003 6.00217 27.9828
rtibia 19.8252
rfoot -26.6243 -2.30057
rtoes -28.9454
lfemur -43.8334 -1.50198 -20.3993
ltibia 17.5089
lfoot 2.13399 19.3758
ltoes -7.2208
579
root 21.4773 15.5589 -9.28804 -161.047 -1.12733 181.219
lowerback -29.5237 1.06713 -7.2069
upperback 1.43416 3.95654 -1.85821
thorax 16.9794 1.0217 3.46922
lowerneck -9.23593 0.10052 14.9176
upperneck 34.3759 -1.10181 -20.1424
head 12.604 -2.46666 -11.4689
rclavicle 4.37326e-015 -5.00937e-014
rhumerus -26.7336 -8.08825 -86.1069
rradius 39.2845
rwrist -8.98158
rhand -4.88667 -57.0503
rfingers 7.12502
rthumb 20.9023 -445.944
lclavicle 4.37326e-015 -5.00937e-014
lhumerus -36.6724 12.5785 69.4972
lradius 17.1505
lwrist -11.3455
lhand -22.7269 -11.3328
lfingers 7.12502
lthumb 3.70684 18.6147
rfemur -11.7929 6.25239 27.8674
rtibia 20.2475
rfoot -27.2321 -2.25181
rtoes -28.3649
lfemur -43.519 -1.7569 -20.2076
ltibia 17.6284
lfoot 2.40806 18.7876
ltoes -17.6002
580
root 21.4702 15.5553 -9.40487 -160.793 -0.946815 181.145
lowerback -29.7653 1.21688 -7.3129
upperback 1.37194 4.22105 -2.04835
thorax 16.9999 1.12521 3.42499
lowerneck -9.34471 0.12773 15.1707
upperneck 34.3666 -1.05785 -20.3082
head 12.6294 -2.42641 -11.5973
rclavicle -2.3059e-014 2.54444e-014
rhumerus -26.6308 -7.92938 -86.4755
rradius 39.2247
rwrist -8.79788
rhand -4.74281 -56.4966
rfingers 7.12502
rthumb 21.0405 -445.375
lclavicle -2.3059e-014 2.54444e-014
lhumerus -36.6828 12.4043 69.5424
lradius 17.3334
lwrist -10.9625
lhand -22.9342 -11.5155
lfingers 7.12502
lthumb 3.50669 18.4354
rfemur -11.7238 6.37645 27.7434
rtibia 20.5885
rfoot -26.9036 -2.27929
rtoes -29.7809
lfemur -43.3065 -1.73847 -20.3324
ltibia 17.4333
lfoot 3.18474 18.9555
ltoes -23.6832
